<svg width="153" height="55" viewBox="0 0 153 55" fill="none" xmlns="http://www.w3.org/2000/svg">
<path d="M36.4398 14.4461H28.8894C28.6741 13.2138 28.277 12.1221 27.6983 11.1711C27.1196 10.2067 26.3995 9.38961 25.5382 8.71988C24.6768 8.05015 23.6943 7.54785 22.5907 7.21299C21.5005 6.86473 20.3229 6.6906 19.0577 6.6906C16.8101 6.6906 14.8182 7.25317 13.082 8.37831C11.3458 9.49007 9.98646 11.1242 9.00397 13.2807C8.02147 15.4239 7.53022 18.0425 7.53022 21.1367C7.53022 24.2844 8.02147 26.9365 9.00397 29.0931C9.99992 31.2362 11.3593 32.8569 13.082 33.9553C14.8182 35.0402 16.8034 35.5827 19.0375 35.5827C20.2758 35.5827 21.4332 35.422 22.5099 35.1005C23.6001 34.7657 24.5759 34.2768 25.4372 33.6338C26.312 32.9909 27.0455 32.2006 27.6377 31.263C28.2434 30.3254 28.6606 29.2538 28.8894 28.0483L36.4398 28.0885C36.1572 30.0441 35.5448 31.8791 34.6027 33.5936C33.674 35.3081 32.456 36.8217 30.9486 38.1344C29.4412 39.4337 27.6781 40.4517 25.6593 41.1884C23.6405 41.9117 21.3996 42.2733 18.9366 42.2733C15.3027 42.2733 12.0591 41.4362 9.20585 39.7618C6.35258 38.0875 4.10495 35.6698 2.46297 32.5087C0.82099 29.3475 0 25.5569 0 21.1367C0 16.7031 0.827719 12.9124 2.48316 9.76466C4.13859 6.60353 6.39295 4.18581 9.24623 2.51148C12.0995 0.837162 15.3296 0 18.9366 0C21.2381 0 23.378 0.32147 25.3565 0.96441C27.3349 1.60735 29.098 2.55167 30.6458 3.79737C32.1936 5.02967 33.4654 6.54326 34.4614 8.33813C35.4708 10.1196 36.1303 12.1556 36.4398 14.4461Z" fill="#006400"/>
<path d="M39.5648 41.7108V10.8496H46.6508V15.9931H46.9739C47.5391 14.2117 48.5082 12.8387 49.881 11.8743C51.2672 10.8965 52.8486 10.4076 54.6252 10.4076C55.029 10.4076 55.4798 10.4277 55.9778 10.4679C56.4893 10.4947 56.9132 10.5415 57.2497 10.6085V17.2991C56.9401 17.192 56.4489 17.0982 55.7759 17.0178C55.1165 16.9241 54.4772 16.8772 53.8581 16.8772C52.5256 16.8772 51.3278 17.1652 50.2645 17.7411C49.2148 18.3037 48.387 19.0873 47.7814 20.0919C47.1757 21.0965 46.8729 22.2551 46.8729 23.5678V41.7108H39.5648Z" fill="#006400"/>
<path d="M70.9432 42.3135C67.9149 42.3135 65.2905 41.6505 63.0698 40.3244C60.8491 38.9984 59.1263 37.1432 57.9016 34.759C56.6903 32.3747 56.0846 29.5887 56.0846 26.4007C56.0846 23.2128 56.6903 20.4201 57.9016 18.0224C59.1263 15.6248 60.8491 13.7629 63.0698 12.4369C65.2905 11.1108 67.9149 10.4478 70.9432 10.4478C73.9714 10.4478 76.5959 11.1108 78.8166 12.4369C81.0373 13.7629 82.7533 15.6248 83.9646 18.0224C85.1894 20.4201 85.8018 23.2128 85.8018 26.4007C85.8018 29.5887 85.1894 32.3747 83.9646 34.759C82.7533 37.1432 81.0373 38.9984 78.8166 40.3244C76.5959 41.6505 73.9714 42.3135 70.9432 42.3135ZM70.9836 36.4869C72.6255 36.4869 73.9983 36.0381 75.102 35.1407C76.2056 34.2299 77.0266 33.011 77.5649 31.484C78.1167 29.957 78.3927 28.2559 78.3927 26.3806C78.3927 24.492 78.1167 22.7842 77.5649 21.2572C77.0266 19.7168 76.2056 18.4912 75.102 17.5804C73.9983 16.6696 72.6255 16.2142 70.9836 16.2142C69.3012 16.2142 67.9015 16.6696 66.7844 17.5804C65.6808 18.4912 64.8531 19.7168 64.3012 21.2572C63.7629 22.7842 63.4937 24.492 63.4937 26.3806C63.4937 28.2559 63.7629 29.957 64.3012 31.484C64.8531 33.011 65.6808 34.2299 66.7844 35.1407C67.9015 36.0381 69.3012 36.4869 70.9836 36.4869Z" fill="#006400"/>
<path d="M88.5936 55V10.8496H95.7806V15.953H96.2046C96.5814 15.2029 97.113 14.4059 97.7994 13.562C98.4858 12.7048 99.4145 11.9748 100.585 11.372C101.756 10.7559 103.25 10.4478 105.067 10.4478C107.463 10.4478 109.623 11.0572 111.548 12.2761C113.486 13.4817 115.02 15.2698 116.151 17.6407C117.295 19.9981 117.867 22.8914 117.867 26.3204C117.867 29.7092 117.308 32.589 116.191 34.9599C115.074 37.3307 113.553 39.139 111.628 40.3847C109.704 41.6304 107.523 42.2532 105.087 42.2532C103.311 42.2532 101.837 41.9586 100.666 41.3692C99.4953 40.7798 98.5531 40.0699 97.8398 39.2395C97.14 38.3956 96.5949 37.5986 96.2046 36.8485H95.9017V55H88.5936ZM95.7604 26.2802C95.7604 28.276 96.0431 30.024 96.6083 31.5242C97.1871 33.0244 98.0148 34.1964 99.0915 35.0402C100.182 35.8707 101.501 36.2859 103.048 36.2859C104.663 36.2859 106.016 35.8573 107.106 35.0001C108.196 34.1294 109.017 32.944 109.569 31.4438C110.134 29.9302 110.417 28.209 110.417 26.2802C110.417 24.3648 110.141 22.6636 109.589 21.1768C109.038 19.69 108.217 18.5247 107.126 17.6809C106.036 16.837 104.677 16.4151 103.048 16.4151C101.487 16.4151 100.161 16.8236 99.0713 17.6407C97.9811 18.4577 97.1534 19.603 96.5881 21.0764C96.0363 22.5498 95.7604 24.2844 95.7604 26.2802Z" fill="#006400"/>
<path d="M125.685 0.562573L134.79 15.6315H135.113L144.258 0.562573H152.798L140.059 21.1367L153 41.7108H144.319L135.113 26.7423H134.79L125.584 41.7108H116.944L130.006 21.1367L117.105 0.562573H125.685Z" fill="#006400"/>
</svg>
